<?xml version="1.0" encoding="UTF-8" standalone="no"?>
<svg width="1600px" height="1600px" viewBox="0 0 1600 1600" version="1.1" xmlns="http://www.w3.org/2000/svg" xmlns:xlink="http://www.w3.org/1999/xlink" xmlns:sketch="http://www.bohemiancoding.com/sketch/ns">
    <title>Artboard 1 copy 2</title>
    <description>Created with Sketch (http://www.bohemiancoding.com/sketch)</description>
    <defs>
        <path d="M842.088254,40.5410292 C778.267736,-7.30881418 666.631064,-15.5889659 602.297772,30.7420417 L62.6764531,419.361972 C-1.65892272,465.69448 -17.9955523,578.746381 20.7871338,657.953116 C39.5237907,696.219404 69.8495212,720.802956 104.458177,729.503911 C97.5465278,777.041059 103.271683,826.41313 124.05662,868.862665 L414.26763,1461.56701 C462.746259,1560.57598 649.118314,1566.33861 766.941503,1461.56704 L1472.23779,834.398497 C1590.05482,729.632413 1569.3323,585.796927 1489.55696,525.984857 L1012.01729,167.946415 C977.816677,142.304288 933.020717,129.113681 886.33052,127.392457 C887.626457,94.840051 872.917936,63.6557822 842.088254,40.5410292 Z M526,114.543144 L548.835302,98 L1329,845.074179 L1296.27074,874 L526,114.543144 Z M818.9583,63.5640157 C782.788471,35.5083503 732.402166,24.1816971 685,29.1247364 L1461.55823,669 C1476.66633,614.59225 1465.43019,565.009555 1425.40757,533.965413 L978.121727,187.021496 C946.087847,162.17394 904.179032,149.020277 860.508662,146.772477 C861.64723,115.831799 847.834813,85.9625127 818.9583,63.5640157 Z M510.270789,125 L486,142.583613 L1239.21329,924 L1274,893.254911 L510.270789,125 Z M352,238.912669 L368.39774,227 L1070,1073.1706 L1046.49753,1094 L352,238.912669 Z M336.971939,251 L317,265.486491 L996.374724,1139 L1025,1113.67025 L336.971939,251 Z M181,364.962591 L200.260155,351 L829,1287.5863 L801.394906,1312 L181,364.962591 Z M146,389.963064 L165.264554,376 L779,1331.58547 L751.388602,1356 L146,389.963064 Z M51.1821397,641.727143 C28.415748,596.84367 26.6324241,543.582842 42.0331528,499 L561,1462.45447 C505.495401,1466.91731 458.111386,1443.9798 432.919473,1394.31446 L151.369617,839.244697 C131.204992,799.490554 125.164618,753.286755 131.091038,708.798652 C98.3099003,700.602566 69.3596136,677.56366 51.1821397,641.727143 Z" id="path-1"></path>
    </defs>
    <g id="Page-1" stroke="none" stroke-width="1" fill="none" fill-rule="evenodd" sketch:type="MSPage">
        <g id="Artboard-1-copy-2" sketch:type="MSArtboardGroup">
            <g id="Rectangle-8-+-SPREAD" sketch:type="MSLayerGroup" transform="translate(24.000000, 32.000000)">
                <g id="Rectangle-8">
                    <use fill="#6D52A0" fill-rule="evenodd" sketch:type="MSShapeGroup" xlink:href="#path-1"></use>
                    <use fill="none" xlink:href="#path-1"></use>
                </g>
            </g>
        </g>
    </g>
</svg>